#!OML:ASF F:\VICON\USERDATA\INSTALL\Justin_Nancy\Justin_Nancy.ASF
:FULLY-SPECIFIED
:DEGREES
221
root 11.9171 17.5047 3.87599 0.903319 -21.8068 6.0431
lowerback 5.20251 -1.26204 -4.76851
upperback -1.07105 -1.95556 1.20752
thorax -3.82976 -0.849645 4.09422
lowerneck -14.7016 -5.79502 -10.4458
upperneck 24.7415 -7.23106 6.04586
head 11.0437 -3.61267 2.91733
rclavicle -3.57315e-014 -7.95139e-015
rhumerus -33.499 -14.1854 -80.0643
rradius 31.8815
rwrist 6.01806
rhand -13.0266 13.978
rfingers 7.12502
rthumb 13.0676 -15.5927
lclavicle -3.57315e-014 -7.95139e-015
lhumerus -30.0663 18.903 76.6163
lradius 23.6098
lwrist -12.9581
lhand -16.0429 27.5384
lfingers 7.12502
lthumb 10.1588 57.2731
rfemur -21.4511 -7.23499 30.034
rtibia 17.0135
rfoot -2.21732 -27.7711
rtoes 30.539
lfemur -0.697199 8.35681 -23.3986
ltibia 37.2297
lfoot -7.57312 6.32558
ltoes -30.2942
222
root 11.8635 17.5012 3.98645 0.888067 -22.7945 6.00401
lowerback 4.9353 -1.17216 -4.61093
upperback -0.945237 -1.81052 1.20148
thorax -3.56767 -0.791152 3.97682
lowerneck -14.0695 -5.82682 -10.9761
upperneck 23.7434 -7.39432 6.94703
head 10.6253 -3.63779 3.31289
rclavicle -2.03754e-014 2.38542e-015
rhumerus -33.1718 -14.4942 -80.0015
rradius 31.5932
rwrist 6.17343
rhand -12.4313 14.7435
rfingers 7.12502
rthumb 13.6414 -14.7895
lclavicle -2.03754e-014 2.38542e-015
lhumerus -30.1221 19.9702 76.4159
lradius 23.151
lwrist -13.6805
lhand -15.8754 27.9104
lfingers 7.12502
lthumb 10.3204 57.6372
rfemur -21.0857 -7.32614 30.267
rtibia 17.1868
rfoot -2.22636 -26.5376
rtoes 29.9421
lfemur -1.44875 8.72052 -23.049
ltibia 38.9868
lfoot -6.28565 5.43813
ltoes -29.7785
223
root 11.8075 17.5065 4.098 0.737508 -23.82 6.26747
lowerback 4.63442 -1.0531 -4.71031
upperback -0.809364 -1.64398 1.10922
thorax -3.27387 -0.718141 3.9136
lowerneck -13.5729 -6.01671 -11.541
upperneck 22.8747 -7.75048 7.80601
head 10.3119 -3.76097 3.66515
rclavicle -4.04527e-014 -7.95139e-016
rhumerus -32.7789 -14.8442 -80.0034
rradius 31.2754
rwrist 6.4765
rhand -12.3001 15.1526
rfingers 7.12502
rthumb 13.7678 -14.3719
lclavicle -4.04527e-014 -7.95139e-016
lhumerus -30.2437 20.7805 76.3277
lradius 22.9314
lwrist -13.7944
lhand -16.1204 27.5438
lfingers 7.12502
lthumb 10.084 57.2822
rfemur -20.7187 -7.48128 30.1638
rtibia 17.5154
rfoot -3.15505 -25.4152
rtoes 30.7068
lfemur -2.19943 9.06731 -23.0063
ltibia 40.653
lfoot -4.28004 4.2723
ltoes -28.7109
224
root 11.7438 17.5112 4.21334 0.465205 -24.6757 6.44421
lowerback 4.57281 -1.03143 -4.78956
upperback -0.810003 -1.6185 1.05288
thorax -3.242 -0.705347 3.89626
lowerneck -12.9156 -6.23622 -11.9412
upperneck 22.1653 -8.12628 8.30639
head 10.0143 -3.9276 3.86146
rclavicle 2.23633e-014 2.38542e-015
rhumerus -32.745 -15.186 -79.8847
rradius 31.0146
rwrist 7.16283
rhand -12.482 14.9357
rfingers 7.12502
rthumb 13.5925 -14.6005
lclavicle 2.23633e-014 2.38542e-015
lhumerus -30.8493 21.5117 76.1002
lradius 22.8938
lwrist -13.9269
lhand -16.2551 27.2882
lfingers 7.12502
lthumb 9.95403 57.0328
rfemur -20.0468 -7.44381 30.0749
rtibia 17.7077
rfoot -4.08416 -24.8251
rtoes 31.1955
lfemur -2.78426 9.16596 -22.8095
ltibia 42.2643
lfoot -1.92873 2.89064
ltoes -28.2169
225
root 11.681 17.5109 4.32817 0.114879 -25.6777 6.48453
lowerback 4.76894 -1.02877 -4.84555
upperback -0.923322 -1.62696 1.15341
thorax -3.46531 -0.698771 4.04067
lowerneck -12.0638 -6.16718 -12.3286
upperneck 21.5472 -8.08893 8.64369
head 9.66164 -3.92802 4.06156
rclavicle 2.0276e-014 1.43125e-014
rhumerus -32.9274 -15.0581 -79.6077
rradius 30.6463
rwrist 7.96184
rhand -12.623 14.5613
rfingers 7.12502
rthumb 13.4566 -14.984
lclavicle 2.0276e-014 1.43125e-014
lhumerus -31.9481 22.2841 75.8598
lradius 22.9288
lwrist -14.2195
lhand -16.6291 26.8855
lfingers 7.12502
lthumb 9.59323 56.6471
rfemur -19.0482 -7.17475 30.0984
rtibia 17.5454
rfoot -3.95542 -24.1226
rtoes 29.5448
lfemur -3.28937 9.34116 -22.4914
ltibia 43.8786
lfoot 0.353507 1.26674
ltoes -29.4206
226
root 11.62 17.5294 4.43847 0.0448843 -26.9737 6.29183
lowerback 4.81534 -0.956978 -4.73602
upperback -1.09739 -1.52075 1.41455
thorax -3.67951 -0.63576 4.24804
lowerneck -12.0067 -6.03002 -12.4529
upperneck 21.563 -7.85265 8.52938
head 9.62929 -3.8432 4.07529
rclavicle -5.59082e-014 7.15625e-015
rhumerus -32.9885 -14.8693 -79.1889
rradius 30.1634
rwrist 8.53163
rhand -12.196 14.5858
rfingers 7.12502
rthumb 13.8681 -14.9318
lclavicle -5.59082e-014 7.15625e-015
lhumerus -33.0479 23.0601 75.7719
lradius 22.9458
lwrist -14.1551
lhand -16.6425 26.8523
lfingers 7.12502
lthumb 9.58032 56.6145
rfemur -18.1256 -7.04616 30.4387
rtibia 17.1132
rfoot -3.65732 -23.0063
rtoes 28.3811
lfemur -4.2382 9.3937 -22.0318
ltibia 45.5831
lfoot 2.75431 -0.249749
ltoes -27.7772
227
root 11.558 17.5576 4.5505 0.0904195 -28.1928 5.97128
lowerback 4.71958 -0.958836 -4.43794
upperback -1.19631 -1.49323 1.66347
thorax -3.73167 -0.622676 4.33659
lowerneck -13.4545 -6.06294 -11.568
upperneck 23.8232 -7.60518 6.63346
head 10.5746 -3.84545 3.2772
rclavicle 1.48592e-014 3.18055e-015
rhumerus -32.9116 -14.152 -79.2111
rradius 30.025
rwrist 8.48073
rhand -12.0774 13.7881
rfingers 7.12502
rthumb 13.9824 -15.7217
lclavicle 1.48592e-014 3.18055e-015
lhumerus -33.9487 23.3044 75.9189
lradius 23.2556
lwrist -13.3836
lhand -16.4169 27.757
lfingers 7.12502
lthumb 9.79796 57.5091
rfemur -17.2298 -7.01765 30.8949
rtibia 16.6247
rfoot -3.84608 -21.9883
rtoes 28.5138
lfemur -5.30445 9.2452 -21.4608
ltibia 47.3259
lfoot 5.66106 -2.18947
ltoes -25.8868
228
root 11.5011 17.5597 4.66034 0.119739 -29.2304 5.64759
lowerback 4.69926 -0.921581 -3.92503
upperback -1.13222 -1.411 1.64751
thorax -3.67334 -0.596332 4.02193
lowerneck -14.5594 -6.11269 -10.7168
upperneck 24.8614 -7.58063 5.72066
head 11.0957 -3.84901 2.79041
rclavicle -4.60683e-014 -6.36111e-015
rhumerus -32.7115 -13.4448 -79.7748
rradius 30.2672
rwrist 8.05865
rhand -12.851 12.6766
rfingers 7.12502
rthumb 13.2368 -16.8831
lclavicle -4.60683e-014 -6.36111e-015
lhumerus -34.226 23.382 75.9319
lradius 23.3643
lwrist -13.1508
lhand -16.0546 28.4137
lfingers 7.12502
lthumb 10.1475 58.149
rfemur -16.1554 -6.88172 31.2741
rtibia 15.835
rfoot -3.98402 -21.1377
rtoes 28.6511
lfemur -6.07385 9.22891 -20.9191
ltibia 49.0726
lfoot 7.49316 -4.73274
ltoes -22.8219
229
root 11.448 17.551 4.75808 -0.00295765 -30.2172 5.80069
lowerback 4.74651 -0.783436 -3.88449
upperback -1.01135 -1.22977 1.4948
thorax -3.59604 -0.512632 3.82567
lowerneck -15.211 -6.16606 -10.2506
upperneck 25.0291 -7.68728 5.61187
head 11.2695 -3.85379 2.6429
rclavicle -6.21202e-015 1.90833e-014
rhumerus -32.2771 -13.2925 -80.2086
rradius 30.3734
rwrist 7.50796
rhand -13.4026 12.5801
rfingers 7.12502
rthumb 12.7051 -17.0135
lclavicle -6.21202e-015 1.90833e-014
lhumerus -33.9229 23.0424 76.2363
lradius 23.0646
lwrist -13.0554
lhand -15.9027 28.5636
lfingers 7.12502
lthumb 10.2941 58.2917
rfemur -15.2716 -6.58205 31.2235
rtibia 15.1307
rfoot -3.80427 -20.6329
rtoes 28.0713
lfemur -6.93878 8.94414 -20.9315
ltibia 50.7063
lfoot 8.42531 -6.46755
ltoes -9.55403
230
root 11.3911 17.548 4.85106 0.0134039 -31.3876 5.50768
lowerback 4.78974 -0.60421 -3.57171
upperback -0.859879 -0.970482 1.53102
thorax -3.49147 -0.394851 3.66612
lowerneck -15.5453 -6.2168 -10.0418
upperneck 24.9577 -7.79271 5.67084
head 11.3101 -3.86675 2.60532
rclavicle 3.3197e-014 0
rhumerus -31.8711 -13.2191 -80.4116
rradius 30.3471
rwrist 7.16724
rhand -13.4228 12.9605
rfingers 7.12502
rthumb 12.6856 -16.6342
lclavicle 3.3197e-014 0
lhumerus -33.843 22.9344 76.5587
lradius 22.9897
lwrist -13.1656
lhand -16.0235 27.8129
lfingers 7.12502
lthumb 10.1775 57.5467
rfemur -14.5561 -6.18237 31.6555
rtibia 14.8051
rfoot -3.18396 -20.1312
rtoes 25.9356
lfemur -7.88381 8.53525 -20.4113
ltibia 52.2624
lfoot 9.90552 -7.4835
ltoes -2.20959
231
root 11.3373 17.5488 4.94625 -0.00308342 -32.588 5.28085
lowerback 4.82722 -0.503621 -3.30937
upperback -0.855784 -0.816997 1.66916
thorax -3.52337 -0.321897 3.65072
lowerneck -15.2467 -6.13765 -10.2568
upperneck 24.7657 -7.67803 5.78824
head 11.1835 -3.82751 2.70763
rclavicle 2.88238e-015 -3.97569e-015
rhumerus -31.6773 -12.5513 -80.5516
rradius 30.3461
rwrist 6.86763
rhand -13.9268 11.9067
rfingers 7.12502
rthumb 12.1997 -17.7175
lclavicle 2.88238e-015 -3.97569e-015
lhumerus -34.3306 23.0436 76.8395
lradius 23.2993
lwrist -13.2364
lhand -15.8342 27.14
lfingers 7.12502
lthumb 10.3601 56.8648
rfemur -13.6824 -5.68346 31.9321
rtibia 14.3649
rfoot -3.14373 -19.6265
rtoes 25.2443
lfemur -8.84945 8.17727 -19.9849
ltibia 53.8052
lfoot 11.1662 -9.64606
ltoes -0.00123534
232
root 11.2848 17.5455 5.04573 0.013394 -33.7534 5.07057
lowerback 4.83406 -0.456819 -3.02902
upperback -0.994604 -0.732497 1.84027
thorax -3.67958 -0.27867 3.66573
lowerneck -14.7513 -5.97357 -10.5306
upperneck 24.7979 -7.44624 5.82515
head 11.0908 -3.75785 2.81354
rclavicle -1.27719e-014 1.90833e-014
rhumerus -31.7778 -11.2205 -80.7534
rradius 30.4878
rwrist 6.27037
rhand -15.195 10.3576
rfingers 7.12502
rthumb 10.9767 -19.3355
lclavicle -1.27719e-014 1.90833e-014
lhumerus -35.1273 23.2086 77.0317
lradius 23.5622
lwrist -13.4772
lhand -14.9166 27.3995
lfingers 7.12502
lthumb 11.2452 57.0781
rfemur -12.8296 -5.22494 32.1329
rtibia 14.0215
rfoot -3.5603 -19.01
rtoes 25.3424
lfemur -9.71352 7.92477 -19.6365
ltibia 55.2458
lfoot 10.8708 -12.551
ltoes -3.98988
233
root 11.2249 17.5317 5.13804 0.360499 -35.2865 3.93492
lowerback 4.95755 -0.124485 -1.92477
upperback -0.933345 -0.215677 2.0602
thorax -3.73141 -0.043714 3.23032
lowerneck -14.3425 -5.97006 -10.6267
upperneck 24.6068 -7.50549 6.00609
head 10.9563 -3.78106 2.89425
rclavicle 4.32357e-015 2.38542e-015
rhumerus -31.6946 -11.0513 -80.7283
rradius 30.4792
rwrist 6.35309
rhand -16.5621 9.37054
rfingers 7.12502
rthumb 9.65787 -20.3881
lclavicle 4.32357e-015 2.38542e-015
lhumerus -35.1401 22.2659 77.6905
lradius 23.4206
lwrist -12.845
lhand -15.1949 27.0322
lfingers 7.12502
lthumb 10.9767 56.7253
rfemur -11.6427 -4.19282 33.1954
rtibia 13.4611
rfoot -3.93044 -18.7048
rtoes 26.0974
lfemur -10.305 7.90545 -18.2789
ltibia 56.8105
lfoot 9.4284 -13.685
ltoes -12.935
234
root 11.1693 17.534 5.24091 0.0520632 -36.6735 4.55536
lowerback 4.84627 0.32153 -2.04684
upperback -1.03118 0.362443 1.71189
thorax -3.8087 0.245484 2.89061
lowerneck -13.6318 -6.14123 -10.8544
upperneck 24.2789 -7.87635 6.439
head 10.761 -3.93586 3.04748
rclavicle -2.5345e-015 1.59028e-015
rhumerus -31.7743 -11.79 -80.5594
rradius 30.4485
rwrist 6.77407
rhand -18.7718 7.19364
rfingers 7.12502
rthumb 7.52539 -22.6525
lclavicle -2.5345e-015 1.59028e-015
lhumerus -34.9692 20.4476 78.5187
lradius 23.3657
lwrist -11.8719
lhand -15.7195 26.8964
lfingers 7.12502
lthumb 10.4707 56.6157
rfemur -11.1269 -4.12303 32.721
rtibia 13.3235
rfoot -3.44107 -17.4416
rtoes 22.5295
lfemur -11.1476 7.47202 -18.7977
ltibia 58.106
lfoot 8.0977 -12.2289
ltoes -13.0156
235
root 11.1133 17.515 5.34213 0.489065 -38.3867 3.18523
lowerback 5.14256 0.655522 -0.79092
upperback -0.932007 0.892099 1.9421
thorax -3.8911 0.482021 2.37582
lowerneck -13.2557 -6.22954 -11.1632
upperneck 24.171 -8.04328 6.71535
head 10.6921 -4.01879 3.18182
rclavicle -8.7018e-014 -5.56597e-015
rhumerus -31.5296 -11.9485 -80.6322
rradius 30.4027
rwrist 7.08518
rhand -14.7435 10.976
rfingers 7.12502
rthumb 11.4121 -18.6934
lclavicle -8.7018e-014 -5.56597e-015
lhumerus -34.9729 20.0537 78.793
lradius 23.3613
lwrist -12.3788
lhand -14.6348 27.8501
lfingers 7.12502
lthumb 11.517 57.5137
rfemur -10.1361 -3.63639 34.0098
rtibia 13.209
rfoot -2.87712 -16.3099
rtoes 17.9034
lfemur -11.5964 7.63939 -17.311
ltibia 59.5068
lfoot 6.63458 -10.4558
ltoes -9.58231
